<svg
   viewBox="0 0 22 22"
   width="22"
   height="22"
   version="1.1"
   id="svg5"
   sodipodi:docname="play_market.svg"
   inkscape:version="1.1.1 (3bf5ae0d25, 2021-09-20)"
   xmlns:inkscape="http://www.inkscape.org/namespaces/inkscape"
   xmlns:sodipodi="http://sodipodi.sourceforge.net/DTD/sodipodi-0.dtd"
   xmlns="http://www.w3.org/2000/svg"
   xmlns:svg="http://www.w3.org/2000/svg">
  <defs
     id="defs9" />
  <sodipodi:namedview
     id="namedview7"
     pagecolor="#ffffff"
     bordercolor="#666666"
     borderopacity="1.0"
     inkscape:pageshadow="2"
     inkscape:pageopacity="0.0"
     inkscape:pagecheckerboard="0"
     showgrid="false"
     width="24px"
     inkscape:zoom="11.310281"
     inkscape:cx="4.3323414"
     inkscape:cy="24.358369"
     inkscape:window-width="1920"
     inkscape:window-height="995"
     inkscape:window-x="0"
     inkscape:window-y="0"
     inkscape:window-maximized="1"
     inkscape:current-layer="svg5" />
  <g
     id="surface70289754"
     transform="matrix(0.40748543,0,0,0.40748543,0.83662984,0.5882022)">
    <path
       style="fill:#ffffff;fill-opacity:1;fill-rule:nonzero;stroke:none"
       d="M 6.78125,2 C 6.769531,2.003906 6.761719,2.027344 6.75,2.03125 6.722656,2.035156 6.683594,2.023438 6.65625,2.03125 6.445312,2.054688 6.25,2.140625 6.09375,2.28125 5.421875,2.648438 5,3.402344 5,4.21875 V 46 c 0,0.621094 0.273438,1.273438 0.78125,1.65625 0.234375,0.261719 0.589844,0.378906 0.9375,0.3125 0.457031,0.02344 0.9375,-0.07813 1.34375,-0.3125 0.847656,-0.492188 18.15625,-10.5 18.15625,-10.5 L 35.25,31.9375 c 0.01953,-0.0078 0.04297,-0.01953 0.0625,-0.03125 l 0.125,-0.0625 c 0,0 0.121094,-0.0625 0.125,-0.0625 0.01172,-0.01172 0.01953,-0.01953 0.03125,-0.03125 0.269531,-0.15625 7.667969,-4.414062 8.6875,-5 0.703125,-0.40625 1.261719,-1.066406 1.25,-1.875 -0.01172,-0.808594 -0.582031,-1.4375 -1.21875,-1.78125 -0.351562,-0.1875 -2.632812,-1.492188 -4.75,-2.71875 -2.117188,-1.226562 -4.125,-2.40625 -4.125,-2.40625 l -9.21875,-5.3125 c 0,0 -16.761719,-9.679688 -17.75,-10.25 C 8.121094,2.207031 7.726562,2.046875 7.34375,2 7.152344,1.976562 6.96875,1.96875 6.78125,2 Z M 7,4.6875 27.375,24.90625 7,45.125 Z m 4.75,1.90625 c 5.085938,2.9375 13.46875,7.78125 13.46875,7.78125 l 8.0625,4.65625 -4.5,4.46875 z M 35.0625,20.0625 c 0.480469,0.28125 1.703125,0.992188 3.5,2.03125 2.117188,1.226562 4.289062,2.46875 4.8125,2.75 0.05078,0.02734 0.03516,0.04297 0.0625,0.0625 -0.03906,0.02734 -0.05078,0.03516 -0.15625,0.09375 -0.960938,0.554688 -7.191406,4.171875 -8.1875,4.75 L 30.1875,24.90625 Z m -6.28125,6.21875 4.53125,4.5 -8.09375,4.65625 c 0,0 -8.164062,4.710938 -13.4375,7.75 z m 0,0"
       id="path2" />
  </g>
</svg>
